<svg width="1082" height="936" viewBox="0 0 1082 936" fill="none" xmlns="http://www.w3.org/2000/svg">
<path d="M535.51 778.941C535.102 766.42 536.205 755.164 534.982 742.726C533.591 728.574 532.179 714.276 526.49 700.944C521.617 689.52 514.632 679.716 504.076 672.818C493.88 666.154 482.733 664.383 470.828 666.478C462.88 667.874 455.309 670.356 448.105 673.957C438.212 678.901 431.405 686.802 426.526 696.559C421.183 707.247 418.825 718.859 415.798 730.283C413.178 740.186 410.532 750.121 407.087 759.758C404.138 768.01 398.794 774.746 390.868 779.178C381.315 784.524 372.181 783.667 363.868 776.993C352.982 768.255 346.535 756.695 344.632 742.862C343.602 735.368 345.73 728.203 349.537 721.869C355.345 712.196 361.635 702.804 367.988 693.476C373.53 685.349 379.187 677.333 383.036 668.203C389.524 652.797 384.834 637.625 374.158 628.224C366.273 621.278 356.747 620.61 346.818 622.355C334.044 624.602 322.448 629.917 311.133 635.948C292.671 645.783 275.611 657.85 258.205 669.363C249.41 675.18 240.48 680.625 229.777 682.496C217.517 684.639 205.501 684.404 193.805 679.899C174.334 672.394 161.435 658.179 153.185 639.434C147.381 626.259 145.07 612.405 146.994 598.132C149.86 576.868 160.766 560.97 179.965 550.988C188.791 546.4 198.354 544.163 207.995 542.136C221.009 539.402 234.237 537.521 246.77 532.776C256.971 528.914 266.006 523.4 272.395 514.291C280.515 502.716 282.083 490.011 277.969 476.711C270.706 453.241 255.141 436.523 234.206 424.44C220.716 416.659 205.998 412.436 190.579 411.281C175.401 410.147 160.154 409.661 144.929 409.394C124.491 409.039 104.256 407.069 84.2835 402.747C67.3849 399.094 50.9569 394.056 35.9824 385.078C23.9568 377.866 13.892 368.678 7.56023 356C0.909558 342.695 -1.23413 328.532 1.29125 313.868C5.22309 291.035 18.378 274.255 37.117 261.618C57.6913 247.743 80.7072 241.315 105.422 241.446C122.143 241.535 138.142 245.689 153.671 251.751C170.967 258.509 187.191 267.44 203.515 276.188C219.462 284.738 235.367 293.371 251.47 301.613C264.003 308.025 276.63 314.338 289.56 319.883C305.617 326.771 322.469 330.853 340.12 329.734C360.663 328.438 379.099 321.498 394.052 307.053C407.678 293.889 411.013 277.667 405.759 259.768C400.823 242.961 390.523 229.645 376.38 219.685C365.452 211.987 353.698 205.475 342.342 198.378C329.26 190.21 316.623 181.446 305.79 170.34C294.674 158.937 286.784 145.752 283.663 129.985C278.742 105.104 288.598 79.141 309.544 64.6545C322.108 55.9688 335.953 52.6817 350.969 55.5089C362.733 57.7248 372.688 63.6511 381.389 71.7932C392.646 82.3237 401.079 94.9602 408.488 108.302C418.192 125.783 427.379 143.552 437.302 160.902C445.328 174.939 455.126 187.686 468.119 197.678C478.372 205.564 490.053 210.335 502.429 213.633C510.611 215.812 518.899 216.512 527.264 215.044C538.307 213.105 546.453 206.776 552.481 197.61C559.352 187.168 562.609 175.368 564.988 163.264C568.983 142.94 569.474 122.303 570.535 101.712C571.173 89.384 571.539 76.9984 574.399 64.9001C580.883 37.4583 596.234 17.2806 622.904 6.73447C638.658 0.505044 655.023 -1.09412 671.864 1.36734C690.106 4.03261 706.9 10.2882 721.911 20.9702C745.168 37.521 759.165 59.8622 763.551 88.1977C766.521 107.393 764.21 125.815 756.441 143.583C750.935 156.173 742.794 166.985 733.498 176.957C721.692 189.614 709.635 202.031 697.918 214.767C688.533 224.963 680.042 235.896 673.741 248.318C659.938 275.535 658.082 303.385 671.101 331.281C681.605 353.79 699.434 367.832 723.956 372.953C737.367 375.755 750.982 375.216 764.555 375.107C784.978 374.939 805.249 372.776 825.352 369.447C839.161 367.163 852.901 364.32 866.501 361.017C881.449 357.385 896.199 352.938 911.037 348.835C936.092 341.9 961.576 339.972 987.384 342.622C1004.37 344.362 1020.73 348.506 1036.2 356.063C1051.18 363.385 1062.16 374.526 1069.49 389.337C1077.34 405.177 1081.61 421.9 1081.24 439.658C1080.99 451.798 1078.42 463.275 1071.23 473.392C1065.64 481.252 1057.48 485.428 1049.02 489.29C1036.25 495.127 1022.83 498.728 1008.95 500.458C996.832 501.963 984.613 502.423 972.467 500.871C958.497 499.084 944.521 497.171 930.665 494.678C919.717 492.708 908.967 489.661 898.081 487.304C879.122 483.202 860.2 478.89 841.132 475.363C824.176 472.227 807.032 470.225 789.699 470.941C780.863 471.307 772.184 472.488 763.938 475.896C752.08 480.798 745.497 489.964 742.883 502.224C740.509 513.345 742.575 524.059 746.506 534.443C751.411 547.382 758.757 558.848 768.858 568.365C775.101 574.244 780.884 580.474 785.354 587.785C794.065 602.031 798.185 617.254 794.159 633.925C791.231 646.045 784.047 655.326 774.181 662.663C767.274 667.806 759.609 671.568 751.395 674.004C743.254 676.418 735.045 675.305 727.292 672.399C716.306 668.276 705.625 663.358 694.671 659.162C688.773 656.899 682.677 654.704 676.476 653.763C664.089 651.877 653.177 661.315 652.226 673.868C651.562 682.616 654.788 690.246 659.07 697.547C665.956 709.279 674.85 719.439 684.737 728.637C707.052 749.4 724.693 773.539 737.79 800.981C746.344 818.906 752.76 837.531 753.795 857.605C754.6 873.225 751.735 887.926 742.271 900.829C736.504 908.694 728.881 914.391 720.562 919.266C700.888 930.8 679.587 935.927 656.869 935.195C633.257 934.438 611.522 927.487 591.753 914.615C575.152 903.808 561.877 889.776 551.943 872.593C542.145 855.65 537.512 837.244 536.555 817.871C535.938 805.365 535.839 792.828 535.51 780.306L535.51 778.941Z" fill="black"/>
</svg>
