<svg width="143" height="53" viewBox="0 0 143 53" fill="none" xmlns="http://www.w3.org/2000/svg">
<path d="M79.832 38.32C78.0187 38.32 76.4613 38.0107 75.16 37.392C73.88 36.7733 72.7173 35.8453 71.672 34.608L74.552 31.728C75.2133 32.6027 75.9813 33.2853 76.856 33.776C77.7307 34.2453 78.7973 34.48 80.056 34.48C81.1867 34.48 82.0827 34.256 82.744 33.808C83.4267 33.36 83.768 32.7413 83.768 31.952C83.768 31.2693 83.576 30.7147 83.192 30.288C82.808 29.8613 82.296 29.4987 81.656 29.2C81.0373 28.9013 80.344 28.6347 79.576 28.4C78.8293 28.144 78.072 27.856 77.304 27.536C76.5573 27.216 75.864 26.8213 75.224 26.352C74.6053 25.8613 74.104 25.2427 73.72 24.496C73.336 23.728 73.144 22.768 73.144 21.616C73.144 20.2507 73.4747 19.088 74.136 18.128C74.7973 17.168 75.704 16.432 76.856 15.92C78.008 15.408 79.3093 15.152 80.76 15.152C82.296 15.152 83.6827 15.44 84.92 16.016C86.1573 16.592 87.1707 17.3387 87.96 18.256L85.08 21.136C84.4187 20.4107 83.736 19.8773 83.032 19.536C82.3493 19.1947 81.5707 19.024 80.696 19.024C79.6933 19.024 78.904 19.216 78.328 19.6C77.752 19.984 77.464 20.5387 77.464 21.264C77.464 21.8827 77.656 22.384 78.04 22.768C78.424 23.152 78.9253 23.4827 79.544 23.76C80.184 24.0373 80.8773 24.304 81.624 24.56C82.392 24.816 83.1493 25.104 83.896 25.424C84.664 25.744 85.3573 26.16 85.976 26.672C86.616 27.184 87.128 27.8453 87.512 28.656C87.896 29.4453 88.088 30.4267 88.088 31.6C88.088 33.6907 87.352 35.3333 85.88 36.528C84.408 37.7227 82.392 38.32 79.832 38.32ZM99.6508 38.32C98.5414 38.32 97.5388 38.096 96.6428 37.648C95.7468 37.1787 95.0321 36.5493 94.4988 35.76C93.9654 34.9707 93.6774 34.064 93.6348 33.04V27.568C93.6774 26.544 93.9654 25.6373 94.4988 24.848C95.0534 24.0373 95.7681 23.3973 96.6428 22.928C97.5388 22.4587 98.5414 22.224 99.6508 22.224C101.08 22.224 102.36 22.576 103.491 23.28C104.621 23.984 105.507 24.944 106.147 26.16C106.808 27.376 107.139 28.752 107.139 30.288C107.139 31.8027 106.808 33.168 106.147 34.384C105.507 35.6 104.621 36.56 103.491 37.264C102.36 37.968 101.08 38.32 99.6508 38.32ZM91.0748 44.464V22.544H95.2668V26.608L94.5628 30.352L95.2348 34.096V44.464H91.0748ZM98.9148 34.448C99.6828 34.448 100.365 34.2773 100.963 33.936C101.56 33.5733 102.019 33.0827 102.339 32.464C102.68 31.824 102.851 31.088 102.851 30.256C102.851 29.4453 102.68 28.7307 102.339 28.112C102.019 27.472 101.56 26.9813 100.963 26.64C100.365 26.2773 99.6828 26.096 98.9148 26.096C98.1681 26.096 97.4961 26.2773 96.8988 26.64C96.3014 26.9813 95.8321 27.472 95.4908 28.112C95.1708 28.7307 95.0108 29.4453 95.0108 30.256C95.0108 31.088 95.1708 31.824 95.4908 32.464C95.8321 33.0827 96.2908 33.5733 96.8668 33.936C97.4641 34.2773 98.1468 34.448 98.9148 34.448ZM109.887 38V14.864H114.079V38H109.887ZM125.058 38.32C123.5 38.32 122.092 37.968 120.834 37.264C119.596 36.5387 118.604 35.568 117.858 34.352C117.132 33.1147 116.77 31.7387 116.77 30.224C116.77 28.7093 117.132 27.3547 117.858 26.16C118.583 24.944 119.575 23.984 120.834 23.28C122.092 22.5547 123.49 22.192 125.026 22.192C126.604 22.192 128.012 22.5547 129.25 23.28C130.508 23.984 131.5 24.944 132.226 26.16C132.951 27.3547 133.314 28.7093 133.314 30.224C133.314 31.7387 132.951 33.1147 132.226 34.352C131.5 35.568 130.508 36.5387 129.25 37.264C128.012 37.968 126.615 38.32 125.058 38.32ZM125.026 34.416C125.815 34.416 126.508 34.2453 127.106 33.904C127.724 33.5413 128.194 33.0507 128.514 32.432C128.855 31.792 129.026 31.0667 129.026 30.256C129.026 29.4453 128.855 28.7307 128.514 28.112C128.172 27.4933 127.703 27.0133 127.106 26.672C126.508 26.3093 125.815 26.128 125.026 26.128C124.258 26.128 123.575 26.3093 122.978 26.672C122.38 27.0133 121.911 27.4933 121.57 28.112C121.228 28.7307 121.058 29.4453 121.058 30.256C121.058 31.0667 121.228 31.792 121.57 32.432C121.911 33.0507 122.38 33.5413 122.978 33.904C123.575 34.2453 124.258 34.416 125.026 34.416ZM134.764 44.848C133.655 44.848 132.738 44.6667 132.012 44.304C131.266 43.9413 130.594 43.4293 129.996 42.768L132.652 40.112C132.908 40.432 133.186 40.656 133.484 40.784C133.762 40.9333 134.092 41.008 134.476 41.008C135.01 41.008 135.458 40.848 135.82 40.528C136.183 40.208 136.364 39.7387 136.364 39.12V22.544H140.556V39.056C140.556 40.272 140.29 41.3067 139.756 42.16C139.244 43.0347 138.551 43.696 137.676 44.144C136.823 44.6133 135.852 44.848 134.764 44.848ZM138.508 20.048C137.826 20.048 137.26 19.824 136.812 19.376C136.364 18.9067 136.14 18.3307 136.14 17.648C136.14 16.9867 136.364 16.4213 136.812 15.952C137.26 15.4827 137.826 15.248 138.508 15.248C139.212 15.248 139.778 15.4827 140.204 15.952C140.652 16.4213 140.876 16.9867 140.876 17.648C140.876 18.3307 140.652 18.9067 140.204 19.376C139.778 19.824 139.212 20.048 138.508 20.048Z" fill="white"/>
<path d="M39.9749 26.2636C39.3321 26.2832 38.7542 26.2301 38.1157 26.289C37.3892 26.3559 36.6552 26.4239 35.9708 26.6976C35.3843 26.9321 34.881 27.2683 34.5268 27.7763C34.1848 28.2669 34.0938 28.8034 34.2014 29.3763C34.273 29.7588 34.4005 30.1231 34.5853 30.4698C34.8391 30.9459 35.2448 31.2735 35.7457 31.5082C36.2943 31.7654 36.8904 31.8789 37.4769 32.0246C37.9853 32.1506 38.4953 32.2779 38.9901 32.4437C39.4137 32.5857 39.7595 32.8428 39.987 33.2243C40.2615 33.684 40.2175 34.1235 39.8749 34.5236C39.4263 35.0475 38.8328 35.3577 38.1227 35.4493C37.738 35.4988 37.3701 35.3964 37.045 35.2133C36.5484 34.9337 36.0663 34.631 35.5874 34.3253C35.1702 34.0586 34.7586 33.7864 34.2899 33.6012C33.499 33.2889 32.7202 33.5146 32.2375 34.0284C31.881 34.4079 31.8466 34.8663 31.9362 35.3441C32.0516 35.9588 32.3245 36.5169 32.6341 37.0614C33.139 37.9498 33.7584 38.7708 34.3495 39.6085C34.6481 40.0317 34.9276 40.4614 35.0237 40.9765C35.1337 41.5665 35.1216 42.1447 34.8904 42.7076C34.5051 43.6446 33.7754 44.2654 32.813 44.6624C32.1366 44.9417 31.4254 45.0529 30.6927 44.9603C29.6011 44.8224 28.7849 44.2976 28.2725 43.3736C28.0369 42.9489 27.9221 42.4887 27.818 42.0247C27.6777 41.3985 27.5811 40.7619 27.3375 40.1587C27.1393 39.6678 26.8562 39.2331 26.3886 38.9256C25.7943 38.5348 25.1421 38.4593 24.4593 38.6574C23.2544 39.0069 22.3962 39.7559 21.7759 40.7634C21.3764 41.4125 21.1596 42.1208 21.1004 42.8629C21.0421 43.5933 21.0172 44.327 21.0035 45.0597C20.9853 46.0433 20.8841 47.017 20.6622 47.9782C20.4747 48.7914 20.2161 49.582 19.7552 50.3026C19.3849 50.8813 18.9133 51.3657 18.2624 51.6704C17.5793 51.9904 16.8523 52.0936 16.0995 51.972C14.9273 51.7828 14.0658 51.1498 13.4171 50.248C12.7048 49.2579 12.3748 48.1503 12.3815 46.9609C12.3861 46.1562 12.5994 45.3863 12.9106 44.639C13.2575 43.8067 13.716 43.0259 14.1651 42.2404C14.604 41.4729 15.0472 40.7075 15.4703 39.9325C15.7995 39.3294 16.1236 38.7218 16.4083 38.0995C16.7619 37.3268 16.9714 36.5159 16.914 35.6664C16.8475 34.6778 16.4912 33.7906 15.7496 33.071C15.0738 32.4153 14.241 32.2548 13.3222 32.5077C12.4593 32.7452 11.7757 33.2409 11.2644 33.9215C10.8692 34.4474 10.5349 35.013 10.1706 35.5595C9.75124 36.189 9.30132 36.7972 8.73121 37.3185C8.14581 37.8535 7.46892 38.2331 6.65949 38.3834C5.38217 38.6201 4.04932 38.1458 3.30563 37.1379C2.85973 36.5332 2.69098 35.867 2.83612 35.1443C2.94988 34.5782 3.25411 34.0991 3.67211 33.6804C4.21271 33.1387 4.86143 32.7329 5.54637 32.3763C6.44379 31.9093 7.35597 31.4672 8.24668 30.9897C8.96731 30.6034 9.62166 30.1319 10.1346 29.5067C10.5395 29.0132 10.7844 28.4511 10.9537 27.8556C11.0656 27.4618 11.1015 27.063 11.0261 26.6604C10.9266 26.129 10.6017 25.737 10.1311 25.4468C9.5951 25.1162 8.98931 24.9595 8.36795 24.845C7.32458 24.6528 6.26511 24.6291 5.20806 24.578C4.57516 24.5473 3.93932 24.5297 3.31824 24.3921C1.90946 24.0801 0.873596 23.3413 0.332191 22.0579C0.0123923 21.2997 -0.0697038 20.5122 0.0566598 19.7017C0.193487 18.8239 0.514627 18.0157 1.06301 17.2933C1.91268 16.1741 3.05961 15.5005 4.51426 15.2894C5.49968 15.1465 6.4454 15.2577 7.35758 15.6316C8.00388 15.8966 8.55897 16.2883 9.07086 16.7357C9.72066 17.3038 10.3581 17.8841 11.0119 18.4479C11.5354 18.8996 12.0966 19.3082 12.7343 19.6114C14.1316 20.2757 15.5613 20.365 16.9934 19.7385C18.1489 19.233 18.8698 18.375 19.1327 17.1949C19.2765 16.5495 19.2489 15.8943 19.2433 15.2411C19.2347 14.2583 19.1236 13.2828 18.9527 12.3153C18.8355 11.6508 18.6895 10.9896 18.52 10.3351C18.3335 9.61577 18.1052 8.90596 17.8946 8.19188C17.5386 6.98614 17.4396 5.75978 17.5756 4.51781C17.6649 3.70031 17.8777 2.91326 18.2656 2.16873C18.6415 1.44761 19.2135 0.919468 19.9738 0.566452C20.787 0.188779 21.6455 -0.0167901 22.5572 0.00107458C23.1804 0.0131521 23.7696 0.136946 24.289 0.482916C24.6925 0.751892 24.9068 1.14466 25.1051 1.55152C25.4048 2.16622 25.5896 2.81186 25.6784 3.4799C25.7557 4.06314 25.7793 4.65116 25.6996 5.23566C25.6079 5.90798 25.5097 6.58054 25.3817 7.24732C25.2806 7.7742 25.1241 8.29152 25.0031 8.81538C24.7925 9.72774 24.5712 10.6383 24.3901 11.556C24.2291 12.372 24.1264 13.197 24.1631 14.0311C24.1819 14.4563 24.2425 14.874 24.4175 15.2708C24.6691 15.8415 25.1397 16.1582 25.7691 16.2841C26.34 16.3983 26.89 16.2989 27.4231 16.1097C28.0874 15.8737 28.676 15.5202 29.1646 15.034C29.4664 14.7336 29.7862 14.4553 30.1615 14.2402C30.8929 13.821 31.6744 13.6227 32.5302 13.8165C33.1524 13.9574 33.6289 14.3031 34.0055 14.7779C34.2695 15.1103 34.4627 15.4791 34.5877 15.8744C34.7117 16.2662 34.6545 16.6612 34.5054 17.0344C34.2937 17.563 34.0412 18.0771 33.8258 18.6042C33.7096 18.888 33.5969 19.1814 33.5486 19.4798C33.4518 20.0759 33.9363 20.601 34.5808 20.6468C35.0299 20.6788 35.4216 20.5235 35.7964 20.3174C36.3987 19.9861 36.9202 19.5581 37.3924 19.0823C38.4583 18.0084 39.6975 17.1594 41.1063 16.5291C42.0265 16.1175 42.9827 15.8088 44.0132 15.7589C44.8151 15.7202 45.5698 15.8581 46.2322 16.3135C46.636 16.591 46.9284 16.9579 47.1787 17.3582C47.7709 18.305 48.0341 19.3301 47.9965 20.4234C47.9576 21.5597 47.6008 22.6056 46.94 23.557C46.3852 24.3558 45.6648 24.9947 44.7827 25.4728C43.9129 25.9443 42.968 26.1672 41.9734 26.2133C41.3314 26.243 40.6878 26.2477 40.045 26.2636H39.9749Z" fill="#E1FF01"/>
</svg>
